<svg xmlns="http://www.w3.org/2000/svg" width="1180" height="720" viewBox="0 0 1180 720" role="img" aria-labelledby="title desc">
  <title id="title">Edge 从菜单进入管理扩展示意图</title>
  <desc id="desc">点击 Edge 右上角三个点，选择扩展，再点击管理扩展。</desc>
  <rect width="1180" height="720" rx="26" fill="#f6faf8"/>
  <rect x="40" y="44" width="1100" height="632" rx="20" fill="#ffffff" stroke="#d5e3de" stroke-width="2"/>
  <rect x="40" y="44" width="1100" height="72" rx="20" fill="#f7f9fa"/>
  <circle cx="78" cy="80" r="8" fill="#ef6f6c"/>
  <circle cx="104" cy="80" r="8" fill="#f6c85f"/>
  <circle cx="130" cy="80" r="8" fill="#5fbd7b"/>
  <rect x="178" y="62" width="560" height="36" rx="18" fill="#ffffff" stroke="#cfd8dc"/>
  <text x="204" y="86" font-family="Microsoft YaHei, Arial, sans-serif" font-size="18" fill="#627174">2link.walkingxiuxian.cn/doubao-migrator</text>

  <g fill="none" stroke="#2b3033" stroke-width="3" stroke-linecap="round" stroke-linejoin="round">
    <path d="M850 79h24"/>
    <path d="M862 67v24"/>
    <circle cx="918" cy="80" r="13"/>
    <path d="M970 67v26"/>
    <path d="M957 80h26"/>
  </g>
  <rect x="1022" y="56" width="64" height="48" rx="14" fill="#d8d8dc"/>
  <circle cx="1042" cy="80" r="4" fill="#2b3033"/>
  <circle cx="1054" cy="80" r="4" fill="#2b3033"/>
  <circle cx="1066" cy="80" r="4" fill="#2b3033"/>
  <path d="M1054 118 L1054 158" stroke="#d94841" stroke-width="5" stroke-linecap="round"/>
  <path d="M1054 158 L1036 138" stroke="#d94841" stroke-width="5" stroke-linecap="round"/>
  <path d="M1054 158 L1072 138" stroke="#d94841" stroke-width="5" stroke-linecap="round"/>
  <rect x="812" y="168" width="310" height="72" rx="12" fill="#fff1f0" stroke="#d94841" stroke-width="2"/>
  <text x="838" y="198" font-family="Microsoft YaHei, Arial, sans-serif" font-size="21" font-weight="700" fill="#9f1d1d">第一步</text>
  <text x="838" y="226" font-family="Microsoft YaHei, Arial, sans-serif" font-size="18" fill="#7a2b2b">点击 Edge 右上角三个点</text>

  <rect x="520" y="130" width="578" height="500" rx="22" fill="#ffffff" stroke="#d7dcde" stroke-width="2"/>
  <g font-family="Microsoft YaHei, Arial, sans-serif" fill="#1f2528">
    <text x="590" y="184" font-size="24">新建标签页</text>
    <text x="958" y="184" font-size="20">Ctrl+T</text>
    <text x="590" y="238" font-size="24">新建窗口</text>
    <text x="958" y="238" font-size="20">Ctrl+N</text>
    <line x1="552" y1="268" x2="1066" y2="268" stroke="#e5e7eb"/>
    <text x="590" y="324" font-size="24">收藏夹</text>
    <text x="590" y="378" font-size="24">历史记录</text>
    <text x="590" y="432" font-size="24">下载</text>
  </g>
  <rect x="546" y="456" width="526" height="54" rx="10" fill="#e2e8e7"/>
  <g fill="none" stroke="#2b3033" stroke-width="3" stroke-linecap="round" stroke-linejoin="round">
    <path d="M588 474h20v20h-20z"/>
    <path d="M598 468v32"/>
    <path d="M582 484h32"/>
  </g>
  <text x="634" y="491" font-family="Microsoft YaHei, Arial, sans-serif" font-size="25" fill="#1f2528">扩展</text>
  <path d="M1038 484 l12 10 l-12 10" fill="none" stroke="#1f2528" stroke-width="3" stroke-linecap="round" stroke-linejoin="round"/>
  <path d="M804 510 L804 558" stroke="#d94841" stroke-width="5" stroke-linecap="round"/>
  <path d="M804 558 L786 538" stroke="#d94841" stroke-width="5" stroke-linecap="round"/>
  <path d="M804 558 L822 538" stroke="#d94841" stroke-width="5" stroke-linecap="round"/>

  <rect x="84" y="410" width="420" height="150" rx="18" fill="#ffffff" stroke="#d7dcde" stroke-width="2"/>
  <rect x="104" y="430" width="380" height="54" rx="10" fill="#e2e8e7"/>
  <g fill="none" stroke="#2b3033" stroke-width="3" stroke-linecap="round" stroke-linejoin="round">
    <path d="M128 448h20v20h-20z"/>
    <path d="M138 442v32"/>
    <path d="M122 458h32"/>
  </g>
  <text x="174" y="465" font-family="Microsoft YaHei, Arial, sans-serif" font-size="24" fill="#1f2528">管理扩展</text>
  <text x="174" y="524" font-family="Microsoft YaHei, Arial, sans-serif" font-size="24" fill="#1f2528">获取 Microsoft Edge 扩展</text>
  <path d="M500 482 C575 482 585 482 650 482" stroke="#d94841" stroke-width="5" fill="none" stroke-linecap="round"/>
  <path d="M650 482 L628 464" stroke="#d94841" stroke-width="5" stroke-linecap="round"/>
  <path d="M650 482 L628 500" stroke="#d94841" stroke-width="5" stroke-linecap="round"/>
  <rect x="210" y="582" width="500" height="72" rx="12" fill="#fff1f0" stroke="#d94841" stroke-width="2"/>
  <text x="238" y="612" font-family="Microsoft YaHei, Arial, sans-serif" font-size="21" font-weight="700" fill="#9f1d1d">第二步</text>
  <text x="238" y="640" font-family="Microsoft YaHei, Arial, sans-serif" font-size="18" fill="#7a2b2b">在“扩展”里点击“管理扩展”，进入扩展页面</text>
</svg>
